# xmcd CD database file
#
# Track frame offsets:
#	150
#	35205
#	66939
#	101932
#	121121
#	145412
#	166718
#	193984
#	224826
#	245765
#
# Disc length: 3610 seconds
#
# Revision: 1
# Processed by: cddbd v1.5.2PL0 Copyright (c) Steve Scherf et al.
# Submitted via: CDex 1.70beta2
#
DISCID=a50e180a
DTITLE=Anita Wardell - Noted
DYEAR=2006
DGENRE=Jazz
TTITLE0=Moanin'
TTITLE1=Watermelon Man
TTITLE2=Autumn Leaves
TTITLE3=Night and Day
TTITLE4=Lonely Woman
TTITLE5=Doodlin'
TTITLE6=The Sidewinder
TTITLE7=Blues on the Corner
TTITLE8=Wonderful, Wonderful
TTITLE9=And What If I Don't
EXTD=YEAR: 2006
EXTT0=
EXTT1=
EXTT2=
EXTT3=
EXTT4=
EXTT5=
EXTT6=
EXTT7=
EXTT8=
EXTT9=
PLAYORDER=
